# xmcd
#
# Track frame offsets: 
#        182
#        13592
#        29950
#        59245
#        82135
#
# Disc length: 2422 seconds
#
# Revision: 3
# Processed by: cddbd v1.5.2PL0 Copyright (c) Steve Scherf et al.
# Submitted via: ExactAudioCopy v1.0b1
#
DISCID=48097405
DTITLE=Savoy Brown - A Step Further
DYEAR=1969
DGENRE=Rock
TTITLE0=Made Up My Mind
TTITLE1=Waiting In The Bamboo Grove
TTITLE2=Life's One Act Play
TTITLE3=I'm Tired - Where Am I
TTITLE4=Savoy Brown Boogie (Live)
EXTD=
EXTT0=
EXTT1=
EXTT2=
EXTT3=
EXTT4=A. Feel So Good\nB. Whole Lotta Shakin' Goin' On\nC. Little Quee
EXTT4=nie\nD. Purple Haze\nE. Hernando's Hideaway
PLAYORDER=
